# xmcd
#
# Track frame offsets:
#	150
#	20351
#	38405
#	52154
#	60039
#	77544
#	95405
#	112450
#	128640
#	141764
#	163960
#	182764
#	204079
#	220143
#	241990
#	254520
#
# Disc length: 3622 seconds
#
# Revision: 1
# Processed by: cddbd v1.5.2PL0 Copyright (c) Steve Scherf et al.
# Submitted via: audiograbber 1.83.01
#
DISCID=d80e2410
DTITLE=Various Artist - The Winners 2007 [CD2]
DYEAR=2007
DGENRE=Country
TTITLE0=Anne Kirkpatrick - Showman's Daughter
TTITLE1=Carter and Carter - Ride
TTITLE2=Kate Brianna and The Stormwater Boys - Jindabyne Fair
TTITLE3=Mike Kerin - Triona Akba
TTITLE4=Michael O'Rourke - The Hat
TTITLE5=Melinda Schneider - Big World Small World
TTITLE6=Catherine Britt - Too Far Gone
TTITLE7=Camille Te Nahu and Stuie French - Let's Make A Family
TTITLE8=Donna Boyd - A Good Day
TTITLE9=The Flood - 2003
TTITLE10=Jeanette Wormald and Peter Pratt - Out Here
TTITLE11=Gemma Doyle - Permission To Breathe
TTITLE12=The Sunny Cowgirls - Six Pack Short
TTITLE13=Graeme Connors - Louisa
TTITLE14=Stuie French - Mister Sandman
TTITLE15=The McClymonts - Something That My Heart Does
EXTD=
EXTT0=
EXTT1=
EXTT2=
EXTT3=
EXTT4=
EXTT5=
EXTT6=
EXTT7=
EXTT8=
EXTT9=
EXTT10=
EXTT11=
EXTT12=
EXTT13=
EXTT14=
EXTT15=
PLAYORDER=
